<svg width="16" height="17" fill="none" xmlns="http://www.w3.org/2000/svg"><path d="M8 1.642A6.67 6.67 0 001.333 8.31 6.669 6.669 0 008 14.975h3.334v-1.333H8c-2.893 0-5.333-2.44-5.333-5.333 0-2.894 2.44-5.334 5.333-5.334 2.893 0 5.334 2.44 5.334 5.334v.953c0 .527-.474 1.047-1 1.047-.527 0-1-.52-1-1.047V8.31a3.335 3.335 0 00-6.667 0 3.335 3.335 0 005.693 2.353c.434.593 1.18.98 1.974.98 1.313 0 2.333-1.067 2.333-2.38V8.31A6.67 6.67 0 008 1.642zm0 8.667c-1.106 0-2-.894-2-2 0-1.107.894-2 2-2 1.107 0 2 .893 2 2 0 1.106-.893 2-2 2z" fill="#C48840"/></svg>