<svg width="16" height="17" fill="none" xmlns="http://www.w3.org/2000/svg"><path d="M12 6.809h-1a1.502 1.502 0 00-1.5-1.5v-1a2.503 2.503 0 012.5 2.5z" fill="#C48840" stroke="#C48840" stroke-width=".2"/><path d="M14 6.809h-1a3.504 3.504 0 00-3.5-3.5v-1a4.505 4.505 0 014.5 4.5zm-1 8h-.085C3.09 14.244 1.695 5.954 1.5 3.424A1.5 1.5 0 013 1.809h2.635a1 1 0 01.93.63l.76 1.87a1 1 0 01-.22 1.08L6.04 6.464a4.68 4.68 0 003.79 3.8l1.085-1.075A1 1 0 0112 8.984l1.885.755a1 1 0 01.615.93v2.64a1.5 1.5 0 01-1.5 1.5zm-10-12a.5.5 0 00-.5.54c.23 2.96 1.705 9.96 10.47 10.46a.5.5 0 00.529-.47l.001-.03v-2.64l-1.885-.755-1.435 1.425-.24-.03C5.59 10.764 5 6.414 5 6.369l-.03-.24 1.42-1.435-.75-1.885H3z" fill="#C48840" stroke="#C48840" stroke-width=".2"/></svg>